<?xml version="1.0" encoding="utf-8"?>
<!-- Generator: Adobe Illustrator 22.1.0, SVG Export Plug-In . SVG Version: 6.00 Build 0)  -->
<svg version="1.1" id="Layer_22" xmlns="http://www.w3.org/2000/svg" xmlns:xlink="http://www.w3.org/1999/xlink" x="0px" y="0px"
	 viewBox="0 0 1460.8 550.1" style="enable-background:new 0 0 1460.8 550.1;" xml:space="preserve">
<style type="text/css">
	.st0{fill:#FFFFFF;}
	.st1{fill:url(#SVGID_1_);}
	.st2{fill:url(#SVGID_2_);}
	.st3{fill:url(#SVGID_3_);}
</style>
<g>
	<path class="st0" d="M428.1,0H122C97.9,0,75.4,7.1,56.4,19.3c-1.6,1-3.1,2.1-4.7,3.2c-0.1,0-0.1,0.1-0.2,0.1
		C20.4,44.8,0,81.1,0,122v306c0,67.1,54.9,122,122,122h306c24.1,0,46.7-7.1,65.7-19.3c33.8-21.8,56.4-59.7,56.4-102.7V122
		C550.1,54.9,495.2,0,428.1,0z"/>
	<g>
		<linearGradient id="SVGID_1_" gradientUnits="userSpaceOnUse" x1="-134.8387" y1="173.9673" x2="306.6805" y2="299.1489">
			<stop  offset="0" style="stop-color:#3425AF"/>
			<stop  offset="1" style="stop-color:#C56CD6"/>
		</linearGradient>
		<path class="st1" d="M450.1,400c0,23.9-9,45.8-23.7,62.3c-14.8,16.5-35.3,27.8-58.5,30.7c-46.4,5.3-83.5,7.1-112.9,7h-1.3
			c-65.4-0.3-92.5-10.3-99.9-13.8c-0.2-0.1-0.4-0.2-0.6-0.3c-0.1,0-0.1-0.1-0.2-0.1c-0.5-0.2-0.8-0.4-1-0.5c0,0-0.1-0.1-0.2-0.1
			c-0.1-0.1-0.2-0.1-0.3-0.2l0,0c-6.4-3.5-12.4-7.9-17.6-13.1c-1,1.1-2.2,2-3.4,2.8c-3.1,2-6.8,3.2-10.7,3.2c-1.1,0-2.2-0.1-3.2-0.3
			c-9.4-1.5-16.6-9.7-16.6-19.5c0-9.1,6.2-16.8,14.6-19.1c-8.2-30.6,2.3-66.1,9.3-93.1c8.4-32.4,16.3-64.9,23.9-97.5l12.1-52.1
			c0,0-3,0.6-4.5,0.6c-0.7,0-1.4,0-2-0.1c-0.5,0-0.9-0.1-1.4-0.2c-7.8-1.6-13.7-8.5-13.7-16.7c0-0.2,0-0.3,0-0.5
			c0-2.3,0.3-4.6,1-6.9c3.3-11.6,14-21.9,21.6-27.4c8.5-6.1,19.5-22,23.2-28.1c3.7-6.1,14.6-13.4,20.7-19.5s9.8-11,17.1-24.4
			c4.7-8.6,9.9-14.8,13-18.1c2.2-2.4,5.1-4.1,8.3-4.8c1-0.2,2-0.3,3-0.3h0.1c1.8,0,3.5,0.3,5.2,0.8c0,0,43.7,11.4,46.1,99.3
			C300,238,263.8,347,312.2,380.8c0,0,6.1,4.8,17.2,6.7c0.9,0.1,1.8,0.3,2.7,0.5c16.2,3.2,47.9,6.1,83.3-9.9
			c4.7-2.1,8.9-5.2,12.9-8.5c2.1-1.8,4.8-2.8,7.8-2.8h0.1c4.9,0,9.1,3.3,10.5,8c0.6,2,1,4,1.5,6.1v0
			C449.4,387,450.1,393.5,450.1,400z"/>
		<g>
			<path class="st0" d="M240.9,245.4c0.7,15.4,1.7,30.7,3,46c0.6,7.7,1.4,15.3,2.2,22.9c0.9,7.6,1.7,15.2,2.9,22.8
				c0.5,3.8,1.2,7.5,1.9,11.3c0.1,1,0.4,1.8,0.6,2.6c0.2,0.8,0.5,1.7,0.7,2.5c0.2,0.8,0.6,1.6,0.9,2.4c0.3,0.8,0.7,1.5,1.1,2.3
				c3.2,6,8.1,11,14.1,14.3c0.7,0.4,1.5,0.7,2.3,1.1l2.4,0.9c0.8,0.2,1.6,0.5,2.5,0.8c0.9,0.2,1.8,0.4,2.7,0.7
				c3.6,0.9,7.3,1.5,11,2.1c7.5,1.1,15.1,1.7,22.8,2.3c0.2,0,0.4,0.2,0.4,0.4c0,0.2-0.1,0.3-0.3,0.4c-7.6,1.7-15.4,2.5-23.3,2.5
				c-3.9,0.1-7.9-0.3-11.9-0.7c-1-0.1-2-0.3-3-0.4c-1-0.2-2.1-0.4-3.1-0.7c-1-0.3-2-0.6-3.1-1c-1-0.4-2-0.8-3-1.2
				c-7.8-3.6-14.2-10.2-17.7-18c-0.4-1-0.8-2-1.2-3c-0.3-1-0.7-2-0.9-3.1c-0.2-1-0.5-2.1-0.7-3.1c-0.2-1-0.3-2.1-0.4-3.1
				c-0.4-3.9-0.9-7.7-1.2-11.6c-0.8-7.7-1.3-15.4-1.8-23.1c-0.4-7.7-0.7-15.4-0.9-23.1c-0.2-7.7-0.3-15.4-0.2-23.1
				c0-7.7,0.1-15.4,0.4-23.1c0-0.2,0.2-0.4,0.4-0.4C240.8,245,240.9,245.2,240.9,245.4z"/>
		</g>
		<linearGradient id="SVGID_2_" gradientUnits="userSpaceOnUse" x1="323.1914" y1="272.2077" x2="8.3329" y2="285.7739">
			<stop  offset="0" style="stop-color:#3425AF"/>
			<stop  offset="1" style="stop-color:#C56CD6"/>
		</linearGradient>
		<path class="st2" d="M269.5,499.8c-5,0.1-9.9,0.2-14.5,0.2h-1.3c-70.1,0.4-98.7-10.2-106.4-13.8c-0.2-0.1-0.4-0.2-0.6-0.3
			c-0.1,0-0.1-0.1-0.2-0.1c-0.5-0.2-0.8-0.4-1-0.5c0,0-0.1-0.1-0.2-0.1c-0.1-0.1-0.2-0.1-0.3-0.2l0,0c-5.2-2.8-10.1-6.3-14.5-10.3
			c-3.4,2.2-8,3.9-13.9,2.9c-9.4-1.5-16.6-9.7-16.6-19.5c0-9.1,6.2-16.8,14.6-19.1c-8.2-30.6,2.3-66.1,9.3-93.1
			c8.4-32.4,16.3-64.9,23.9-97.5l12.1-52.1c0,0-3,0.6-4.5,0.6c-0.7,0-1.4,0-2-0.1l0.1-0.5c0,0-0.6,0.1-1.5,0.3
			c-7.8-1.6-13.7-8.5-13.7-16.7c0-0.2,0-0.3,0-0.5c0-2.3,0.3-4.6,1-6.9c3.3-11.6,14-21.9,21.6-27.4c8.5-6.1,19.5-22,23.2-28.1
			c3.7-6.1,14.6-13.4,20.7-19.5s9.8-11,17.1-24.4c4.7-8.6,9.9-14.8,13-18.1c2.2-2.4,5.1-4.1,8.3-4.8c0.6,0.1,1.2,0.3,1.8,0.5
			c0,0-44.9,88.3-53.5,94.4c-7.6,5.4-18.3,15.8-21.6,27.4c-0.6,2.2-0.9,4.6-1,6.9c0,0.2,0,0.4,0,0.5c0,9.4,7.7,17.1,17.1,17.1
			c1.6,0,4.5-0.6,4.5-0.6l-12.1,52.1c-7.6,32.6-15.5,65.1-23.9,97.5c-7,27-17.5,62.5-9.3,93.1c4.3,13.2,10.3,23.6,19.3,32.8
			c5.2,5.2,11.1,9.6,17.6,13.1l0,0c0,0,0.1,0.1,0.3,0.2c0,0,0.1,0.1,0.2,0.1c0.2,0.1,0.6,0.3,1,0.5c0.1,0,0.1,0.1,0.2,0.1
			c0.2,0.1,0.4,0.2,0.6,0.3C191.3,489.5,214.8,498.2,269.5,499.8z"/>
		<g>
			<circle class="st0" cx="216.4" cy="123.9" r="9.2"/>
		</g>
		<linearGradient id="SVGID_3_" gradientUnits="userSpaceOnUse" x1="402.6801" y1="509.8643" x2="414.0716" y2="361.7753">
			<stop  offset="0" style="stop-color:#3425AF"/>
			<stop  offset="1" style="stop-color:#C56CD6"/>
		</linearGradient>
		<path class="st3" d="M447.9,380.1c-0.4-1.8-0.8-3.6-1.3-5.3c-1.3-4.7-5.6-8-10.5-8h-0.1c-3,0-5.7,1.1-7.8,2.8
			c-4,3.3-8.2,6.4-12.9,8.5c-13.7,6.2-26.8,9.5-38.6,11.1C393.3,391.5,419.2,391.8,447.9,380.1z"/>
	</g>
</g>
<g>
	<path class="st0" d="M650.1,164.9c-0.1-3.1,0.2-5.5,0.9-7.4c0.7-1.9,2.2-3.3,4.5-4.4s5.6-1.8,9.8-2.2c4.2-0.4,9.9-0.6,16.9-0.6
		c6.9,0,12.5,0.2,16.7,0.6c4.2,0.4,7.5,1.1,9.8,2.2s3.8,2.5,4.6,4.4c0.8,1.9,1.1,4.3,1,7.4l-7.2,250.5h46c3.1,0,5.4,0.3,7.1,0.8
		c1.7,0.5,2.9,1.4,3.7,2.6c0.8,1.2,1.2,2.9,1.4,5c0.2,2.1,0.3,4.8,0.3,7.9s-0.1,5.8-0.3,7.9c-0.2,2.1-0.6,3.8-1.4,5
		c-0.8,1.2-2,2.1-3.7,2.6c-1.7,0.5-4.1,0.8-7.1,0.8h-70.9c-5.4,0-9.7-0.1-13-0.4c-3.2-0.2-5.7-0.8-7.3-1.6c-1.6-0.8-2.7-2-3.3-3.6
		c-0.5-1.6-0.9-3.7-1-6.4L650.1,164.9z"/>
	<path class="st0" d="M794,249.2c0-2.5,0.3-4.6,0.8-6.3c0.5-1.7,1.8-3,3.8-4c2-0.9,4.9-1.6,8.7-2c3.8-0.4,8.9-0.6,15.2-0.6
		s11.4,0.2,15.2,0.6c3.8,0.4,6.7,1.1,8.7,2c2,0.9,3.3,2.3,3.8,4c0.5,1.7,0.8,3.8,0.8,6.3l-5.5,188.9c0,2.2-0.3,4-0.9,5.3
		c-0.6,1.3-1.7,2.3-3.3,3c-1.6,0.7-4,1.2-7,1.4c-3,0.2-7,0.4-11.9,0.4s-8.9-0.1-11.9-0.4c-3-0.2-5.3-0.7-6.9-1.4s-2.7-1.7-3.3-3
		c-0.6-1.3-0.9-3.1-0.9-5.3L794,249.2z M823.6,208.5c-5.8,0-10.4-0.1-13.8-0.4c-3.5-0.2-6.1-0.7-7.9-1.4c-1.8-0.7-3.1-1.7-3.7-3
		c-0.6-1.3-1-3.1-1-5.3l-2.1-34.4c0-2.5,0.3-4.6,0.8-6.3c0.5-1.7,1.8-3,3.8-4c2-0.9,4.9-1.6,8.7-2c3.8-0.4,8.9-0.6,15.2-0.6
		s11.4,0.2,15.2,0.6c3.8,0.4,6.7,1.1,8.7,2c2,0.9,3.3,2.3,3.8,4c0.5,1.7,0.8,3.8,0.8,6.3l-1.9,34.4c0,2.2-0.3,4-1,5.3
		c-0.6,1.3-1.9,2.3-3.8,3c-1.9,0.7-4.6,1.2-8,1.4C833.9,208.4,829.3,208.5,823.6,208.5z"/>
	<path class="st0" d="M895,396.9c0-2.2,0.3-4.1,0.9-5.5c0.6-1.4,1.7-2.6,3.4-3.4c1.7-0.9,4.1-1.5,7.3-1.9c3.2-0.4,7.3-0.5,12.5-0.5
		c5.3,0,9.5,0.2,12.7,0.5c3.2,0.4,5.6,1,7.3,1.9c1.7,0.9,2.8,2.1,3.4,3.5c0.6,1.5,0.9,3.3,0.9,5.6v8.6c0,7.2,2.1,12.2,6.3,15
		c4.2,2.8,10.1,4.2,17.7,4.2c7.6,0,13-1.6,16-4.8c3-3.2,4.5-8.6,4.5-16.1v-8.6c0-2.9-0.4-5.5-1.1-7.6c-0.8-2.1-1.9-4-3.4-5.6
		c-1.5-1.6-3.5-3-5.9-4.1c-2.4-1.2-5.2-2.3-8.4-3.3l-52.2-18.3c-8.3-2.9-14.5-7.8-18.6-14.5c-4.1-6.7-6.3-14.9-6.6-24.7l-1.1-30.8
		c-0.4-9.4,1.6-17.4,5.8-24c4.2-6.6,9.9-12,17.1-16.1c7.2-4.2,15.4-7.2,24.7-9.2c9.3-1.9,18.8-2.9,28.6-2.9c9.5,0,18.8,0.8,27.8,2.5
		c9,1.6,17.1,4.4,24.1,8.2c7,3.8,12.5,8.9,16.6,15.2c4.1,6.3,5.9,14.1,5.6,23.5l-1.4,37c-0.1,2.2-0.5,4-1.1,5.3
		c-0.6,1.3-1.9,2.3-3.6,3s-4.3,1.2-7.5,1.4c-3.2,0.2-7.5,0.4-12.8,0.4c-5.8,0-10.4-0.1-13.8-0.4c-3.5-0.2-6.1-0.7-8-1.4
		c-1.9-0.7-3.1-1.7-3.8-3c-0.6-1.3-1-3.1-1-5.3l-1.2-40c-0.1-3.9-0.7-7-1.7-9.5c-1-2.5-2.4-4.4-4.1-5.8c-1.7-1.4-3.7-2.3-6.1-2.8
		c-2.4-0.5-5-0.7-7.9-0.7c-2.9,0-5.6,0.3-8,0.8c-2.4,0.5-4.5,1.5-6.3,2.9c-1.8,1.4-3.1,3.3-4.1,5.7c-1,2.4-1.6,5.5-1.7,9.3
		l-1.2,38.2c-0.2,5.8,1,10.5,3.6,14.2s7,6.6,13.1,8.5l44.4,15.9c6,2.1,10.9,4.4,14.8,6.9c3.9,2.5,7,5.3,9.3,8.6
		c2.3,3.3,3.8,7,4.7,11.2c0.8,4.2,1.1,9.1,0.9,14.7l-0.4,8.1c-0.4,8.1-2.4,14.9-6.3,20.4c-3.8,5.5-8.9,10-15.2,13.5
		c-6.3,3.5-13.5,5.9-21.5,7.4c-8,1.5-16.5,2.2-25.3,2.2c-8.6,0-17.2-0.7-25.8-2c-8.6-1.3-16.4-3.8-23.4-7.2
		c-6.9-3.5-12.6-8.2-16.9-14.1c-4.3-5.9-6.5-13.5-6.5-22.8V396.9z"/>
	<path class="st0" d="M1088.1,285h-9.9c-3.1,0-5.4-0.2-7.1-0.7c-1.7-0.5-3-1.3-3.8-2.6c-0.8-1.3-1.3-3.1-1.5-5.4
		c-0.2-2.3-0.3-5.3-0.3-8.9c0-3.3,0.1-6,0.3-8c0.2-2.1,0.7-3.7,1.5-4.8c0.8-1.2,2.1-2,3.8-2.4c1.7-0.4,4.1-0.6,7.1-0.6h9l-1.1-49.2
		c0-2.5,0.3-4.6,0.8-6.3c0.5-1.7,1.8-3,3.8-4c2-0.9,4.9-1.6,8.7-2c3.8-0.4,8.9-0.6,15.2-0.6c6.3,0,11.4,0.2,15.2,0.6
		c3.8,0.4,6.7,1.1,8.7,2c2,0.9,3.3,2.3,3.8,4c0.5,1.7,0.8,3.8,0.8,6.3l-1.2,49.2h9.2c3.1,0,5.4,0.2,7.1,0.6c1.7,0.4,3,1.2,3.8,2.4
		c0.8,1.2,1.3,2.8,1.5,4.8c0.2,2.1,0.3,4.7,0.3,8c0,3.6-0.1,6.6-0.3,8.9c-0.2,2.3-0.7,4.1-1.5,5.4c-0.8,1.3-2.1,2.2-3.8,2.6
		c-1.7,0.5-4.1,0.7-7.1,0.7h-9.9l-3.5,153.2c0,2.2-0.3,4-0.9,5.3c-0.6,1.3-1.7,2.3-3.3,3c-1.6,0.7-4,1.2-7,1.4
		c-3,0.2-7,0.4-11.9,0.4c-4.9,0-8.9-0.1-11.9-0.4c-3-0.2-5.3-0.7-6.9-1.4c-1.6-0.7-2.7-1.7-3.3-3c-0.6-1.3-0.9-3.1-0.9-5.3
		L1088.1,285z"/>
	<path class="st0" d="M1192.3,249.2c0-2.5,0.3-4.6,0.8-6.3c0.5-1.7,1.8-3,3.8-4c2-0.9,4.9-1.6,8.7-2c3.8-0.4,8.9-0.6,15.2-0.6
		s11.4,0.2,15.2,0.6c3.8,0.4,6.7,1.1,8.7,2c2,0.9,3.3,2.3,3.8,4c0.5,1.7,0.8,3.8,0.8,6.3l-5.5,188.9c0,2.2-0.3,4-0.9,5.3
		c-0.6,1.3-1.7,2.3-3.3,3c-1.6,0.7-4,1.2-7,1.4c-3,0.2-7,0.4-11.9,0.4s-8.9-0.1-11.9-0.4c-3-0.2-5.3-0.7-6.9-1.4s-2.7-1.7-3.3-3
		c-0.6-1.3-0.9-3.1-0.9-5.3L1192.3,249.2z M1221.9,208.5c-5.8,0-10.4-0.1-13.8-0.4c-3.5-0.2-6.1-0.7-7.9-1.4c-1.8-0.7-3.1-1.7-3.7-3
		c-0.6-1.3-1-3.1-1-5.3l-2.1-34.4c0-2.5,0.3-4.6,0.8-6.3c0.5-1.7,1.8-3,3.8-4c2-0.9,4.9-1.6,8.7-2c3.8-0.4,8.9-0.6,15.2-0.6
		s11.4,0.2,15.2,0.6c3.8,0.4,6.7,1.1,8.7,2c2,0.9,3.3,2.3,3.8,4c0.5,1.7,0.8,3.8,0.8,6.3l-1.9,34.4c0,2.2-0.3,4-1,5.3
		c-0.6,1.3-1.9,2.3-3.8,3c-1.9,0.7-4.6,1.2-8,1.4C1232.3,208.4,1227.7,208.5,1221.9,208.5z"/>
	<path class="st0" d="M1292.2,207.6c-0.2-8.8,1.2-16.9,4.4-24.1c3.2-7.3,8.2-13.5,15.1-18.7c6.9-5.2,15.7-9.2,26.6-12.1
		c10.9-2.9,23.9-4.3,39.2-4.3c15.2,0,28.2,1.4,39,4.3c10.9,2.9,19.8,6.9,26.7,12.1c6.9,5.2,12,11.4,15.2,18.7
		c3.2,7.3,4.6,15.3,4.4,24.1l-5.1,186.8c-0.2,9.8-2.8,18.7-7.8,26.9c-4.9,8.2-12.7,14.8-23.3,19.8l21.7,32.4
		c2.8,4.1,5.1,7.5,6.9,10.3c1.8,2.8,2.6,5,2.6,6.8c0,1.4-0.2,2.6-0.6,3.6c-0.4,1-1.4,1.8-2.8,2.5c-1.5,0.6-3.6,1.1-6.4,1.4
		c-2.8,0.3-6.6,0.4-11.5,0.4c-4.6,0-8.2-0.1-10.8-0.4c-2.6-0.3-4.8-0.9-6.6-1.9c-1.8-0.9-3.3-2.3-4.8-4c-1.4-1.7-3.2-4-5.3-6.8
		l-25.9-35.4c-0.9,0.1-1.9,0.2-2.8,0.2c-0.9,0-1.9,0-2.8,0c-14.2,0-26.4-1.5-36.5-4.4c-10.1-2.9-18.4-6.9-24.8-12
		c-6.4-5.1-11.1-11-14.2-17.8c-3.1-6.8-4.7-14-4.9-21.7L1292.2,207.6z M1349.2,396c-0.1,4.9,0.3,9,1.3,12.3c1,3.3,2.6,5.9,4.9,7.8
		c2.3,1.9,5.3,3.3,8.9,4.1c3.6,0.8,8,1.2,13.2,1.2c5.2,0,9.6-0.4,13.2-1.2c3.6-0.8,6.6-2.2,8.9-4.1c2.3-1.9,3.9-4.6,4.9-7.8
		c1-3.3,1.4-7.4,1.3-12.3l-5.1-193.9c-0.1-5.2-0.7-9.3-1.8-12.3c-1.1-3.1-2.6-5.4-4.5-7c-1.9-1.6-4.3-2.7-7.1-3.3
		c-2.8-0.5-6.1-0.8-9.9-0.8c-3.8,0-7.1,0.3-9.9,0.8c-2.8,0.5-5.2,1.6-7.1,3.3c-1.9,1.6-3.4,4-4.5,7c-1.1,3.1-1.6,7.2-1.8,12.3
		L1349.2,396z"/>
</g>
</svg>
